<?xml version="1.0" encoding="UTF-8" standalone="no"?>
<!-- Created with Inkscape (http://www.inkscape.org/) -->

<svg
   width="210mm"
   height="297mm"
   viewBox="0 0 793.70081 1122.5197"
   version="1.1"
   id="svg1"
   xml:space="preserve"
   sodipodi:docname="logo.svg"
   inkscape:version="1.4 (e7c3feb1, 2024-10-09)"
   xmlns:inkscape="http://www.inkscape.org/namespaces/inkscape"
   xmlns:sodipodi="http://sodipodi.sourceforge.net/DTD/sodipodi-0.dtd"
   xmlns:xlink="http://www.w3.org/1999/xlink"
   xmlns="http://www.w3.org/2000/svg"
   xmlns:svg="http://www.w3.org/2000/svg"><sodipodi:namedview
     id="namedview1"
     pagecolor="#ffffff"
     bordercolor="#000000"
     borderopacity="0.25"
     inkscape:showpageshadow="2"
     inkscape:pageopacity="0.0"
     inkscape:pagecheckerboard="0"
     inkscape:deskcolor="#d1d1d1"
     inkscape:document-units="mm"
     inkscape:zoom="0.74137502"
     inkscape:cx="182.09408"
     inkscape:cy="673.74809"
     inkscape:window-width="1680"
     inkscape:window-height="938"
     inkscape:window-x="0"
     inkscape:window-y="25"
     inkscape:window-maximized="1"
     inkscape:current-layer="g29" /><defs
     id="defs1"><linearGradient
       id="linearGradient101"
       inkscape:collect="always"><stop
         style="stop-color:#40a8b2;stop-opacity:1;"
         offset="0.00323625"
         id="stop102" /><stop
         style="stop-color:#40d674;stop-opacity:1;"
         offset="1"
         id="stop103" /></linearGradient><linearGradient
       id="swatch25"
       inkscape:swatch="solid"><stop
         style="stop-color:#ff0000;stop-opacity:1;"
         offset="0"
         id="stop25" /></linearGradient><linearGradient
       inkscape:collect="always"
       xlink:href="#linearGradient101"
       id="linearGradient103"
       x1="-558.26178"
       y1="579.11975"
       x2="-263.6973"
       y2="579.11975"
       gradientUnits="userSpaceOnUse" /></defs><g
     inkscape:label="Layer 1"
     inkscape:groupmode="layer"
     id="layer1"><g
       id="g29"
       style="fill:#ff0000"
       transform="translate(1172.123,-304.3142)"><g
         id="g76"
         transform="translate(-419.47634,405.24262)"
         style="fill:url(#linearGradient103);fill-opacity:1"
         inkscape:export-filename="/Users/acus/g76.svg"
         inkscape:export-xdpi="96"
         inkscape:export-ydpi="96"><path
           d="m -482.68735,648.76325 c -1.8454,-0.2626 -2.72436,0.40996 -5.4014,1.62611 -2.64462,1.20143 -13.89178,5.88071 -24.99247,10.39767 -23.62536,9.6133 -26.46449,10.86436 -26.43502,11.64816 0.0299,0.79604 21.65749,11.37294 32.02207,15.66059 23.13993,9.57262 52.2026,16.10534 82.34069,18.50797 9.50289,0.75758 26.19087,0.46203 38.61013,-0.68148 29.87633,-2.75088 57.01077,-10.00161 84.39789,-22.55638 11.18713,-5.12838 20.58629,-10.16619 20.98846,-11.24782 0.39703,-1.0678 -4.0031,-3.05352 -32.99297,-14.88465 -19.17393,-7.82513 -22.52953,-8.93926 -24.61365,-8.17778 -1.32723,0.48494 -5.6721,2.1108 -9.65379,3.61432 -22.09957,8.34509 -53.88056,12.13646 -79.59357,9.49577 -15.12567,-1.55339 -33.33516,-5.49708 -43.47466,-9.4148 -6.54326,-2.5282 -9.3563,-3.72508 -11.20171,-3.98768 z"
           style="fill:url(#linearGradient103);stroke-width:5.74126;fill-opacity:1"
           id="path73" /><path
           d="m -380.87117,561.13495 -11.47265,4.43555 c -6.31004,2.43951 -11.86055,4.85066 -12.33399,5.35742 -0.47343,0.50677 -1.97051,2.94984 -3.32812,5.42969 -1.3576,2.47984 -5.0863,8.9063 -8.28516,14.2793 l -5.8164,9.76757 21.30664,0.19922 21.30664,0.19922 6.4082,10.79297 c 6.40879,10.79182 6.40986,10.7918 10.375,12.04102 2.18083,0.68707 4.64018,1.58079 5.4668,1.98632 1.98225,0.97248 16.36518,6.55699 17.12305,6.64844 0.32453,0.0391 0.18716,-0.6892 -0.30469,-1.61914 -0.49185,-0.92995 -4.00437,-6.93357 -7.80664,-13.33984 -11.3012,-19.04089 -19.42823,-32.92333 -24.41407,-41.70508 -2.5812,-4.54639 -5.48804,-9.66279 -6.45898,-11.36914 z"
           style="fill:url(#linearGradient103);stroke-width:4.72063;fill-opacity:1"
           id="path74" /><path
           d="m -411.0489,511.18769 c -0.26942,0.2998 -1.32624,2.06589 -2.34766,3.92578 -1.02142,1.85988 -2.86882,5.07214 -4.10547,7.13867 -1.23666,2.06654 -4.17395,7.23626 -6.58007,11.45703 -6.05103,10.61459 -12.16094,20.80867 -18.30079,31.51563 -7.37082,12.7362 -15.63981,27.0695 -18.37695,31.85156 -2.73714,4.78206 -6.68893,11.45461 -8.78125,14.82812 -2.09232,3.37352 -3.80469,6.28173 -3.80469,6.4629 0,0.18117 -1.62534,2.97702 -3.61328,6.21289 -7.98285,12.99408 -7.44763,11.81829 -5.12109,11.23437 1.12754,-0.283 7.90861,-3.0613 15.06836,-6.17383 13.01774,-5.65914 13.01738,-5.65873 15.13476,-9.55664 1.16456,-2.14384 5.77167,-9.93524 10.23829,-17.31445 4.46661,-7.37922 8.12109,-13.50681 8.12109,-13.61719 0,-0.11038 3.26305,-5.57191 7.25,-12.13477 3.98694,-6.56287 8.26108,-13.79126 9.5,-16.06445 1.23892,-2.2732 2.53443,-4.49696 2.87891,-4.9414 0.34448,-0.44444 5.70511,-2.81106 11.91211,-5.25977 6.207,-2.44872 11.28714,-4.85167 11.28906,-5.33984 0.003,-0.84369 -8.13141,-15.23966 -16.15625,-28.58985 -2.04351,-3.39961 -3.93565,-5.93457 -4.20508,-5.63476 z"
           style="fill:url(#linearGradient103);stroke-width:4.72063;fill-opacity:1"
           id="path75"
           sodipodi:nodetypes="sssssssssssssssssscss" /><path
           d="m -433.39656,451.21698 -2.58008,4.33203 c -4.7847,8.02981 -15.37879,26.04874 -21.76367,37.01953 -3.48783,5.99296 -9.72477,16.64565 -13.86133,23.67188 -4.13657,7.02623 -14.03677,24.10342 -22,37.94922 -7.96322,13.8458 -18.12012,31.42998 -22.57031,39.07617 -4.4502,7.6462 -8.75694,15.08663 -9.57031,16.53321 -0.81337,1.44658 -3.45212,6.01146 -5.86524,10.14453 -2.41312,4.13308 -6.72777,11.57155 -9.58789,16.53125 -2.86013,4.95969 -5.4677,9.35623 -5.79492,9.76953 -0.88363,1.11608 -11.27148,19.07288 -11.27148,19.48437 0,0.48032 3.73985,-1.11657 16.15625,-6.89648 5.78631,-2.69356 15.32334,-7.19069 21.1914,-9.99414 5.86806,-2.80345 11.33826,-5.31068 12.15625,-5.57031 0.88547,-0.28103 3.73234,-4.33493 7.03711,-10.01953 3.05293,-5.2514 7.09765,-12.08379 8.98828,-15.1836 3.38838,-5.55544 12.67478,-21.36829 20.74024,-35.31836 2.27013,-3.92642 4.88223,-8.32295 5.80469,-9.76953 0.92246,-1.44658 5.04741,-8.54836 9.16797,-15.78125 6.55136,-11.49971 20.66581,-35.92033 23.88671,-41.33008 0.6152,-1.03327 5.93077,-10.10672 11.81251,-20.16211 10.69407,-18.28254 7.98228,-13.7166 10.63743,-17.7836 20.05318,32.13909 39.04189,64.92736 57.93874,97.75626 16.35318,28.52904 20.69835,36.02381 30.01367,51.78125 2.93202,4.9597 5.96566,10.23088 6.74219,11.71289 1.21598,2.3207 2.46586,3.14683 9.00976,5.95117 4.17898,1.79087 11.14856,4.93122 15.48829,6.97852 4.33973,2.0473 12.10375,5.54846 17.25195,7.78125 5.14821,2.23279 9.62352,4.47394 9.94531,4.98047 0.43986,0.69236 0.58706,0.65999 0.59571,-0.12891 0.0106,-0.96759 -3.76888,-7.59388 -15.14063,-26.54883 -2.41216,-4.02069 -4.38672,-7.47149 -4.38672,-7.66797 0,-0.19648 -1.9685,-3.66978 -4.375,-7.71875 -5.91357,-9.94967 -12.38808,-21.01652 -14.34766,-24.52148 -0.88563,-1.58408 -4.25273,-7.3313 -7.48242,-12.77344 -3.22969,-5.44215 -7.66691,-13.10874 -9.85937,-17.03516 -2.19247,-3.92642 -5.58628,-9.84393 -7.54297,-13.15039 -1.95668,-3.30646 -8.03281,-13.78884 -13.50195,-23.29492 -5.46915,-9.50607 -12.55692,-21.67973 -15.75001,-27.05273 -3.19309,-5.373 -8.16916,-13.82742 -11.05859,-18.78711 -2.88943,-4.95969 -6.2392,-10.67849 -7.44531,-12.70899 -1.20612,-2.0305 -4.58931,-7.77967 -7.51758,-12.77539 l -5.32422,-9.08398 -22.98242,-0.19727 z"
           style="fill:url(#linearGradient103);stroke-width:4.72063;fill-opacity:1"
           id="path76"
           sodipodi:nodetypes="ccssssssssssssssssssscssssssssssssssssssscccc" /></g></g></g></svg>
